<?xml version="1.0" encoding="UTF-8" standalone="no"?>
<svg width="26px" height="19px" viewBox="0 0 26 19" version="1.1" xmlns="http://www.w3.org/2000/svg" xmlns:xlink="http://www.w3.org/1999/xlink" xmlns:sketch="http://www.bohemiancoding.com/sketch/ns">
    <!-- Generator: Sketch 3.3.1 (12005) - http://www.bohemiancoding.com/sketch -->
    <title>Shape</title>
    <desc>Created with Sketch.</desc>
    <defs></defs>
    <g id="Page-1" stroke="none" stroke-width="1" fill="none" fill-rule="evenodd" sketch:type="MSPage">
        <g id="Desktop-HD-Copy-3" sketch:type="MSArtboardGroup" transform="translate(-1033.000000, -814.000000)" stroke="#000000" stroke-width="1.2">
            <path d="M1057.48954,822.682268 C1057.38961,822.535208 1055.00687,819.04409 1051.71872,816.657771 C1050.01384,815.418269 1047.86348,814.736111 1045.66496,814.736111 C1043.46764,814.736111 1041.31728,815.418269 1039.60879,816.657771 C1036.32064,819.04409 1033.94031,822.535208 1033.84038,822.682268 C1033.55382,823.106145 1033.55382,823.668431 1033.84038,824.092309 C1033.94031,824.239368 1036.32064,827.730487 1039.60879,830.116805 C1041.31728,831.355071 1043.46764,832.037229 1045.66496,832.037229 C1047.86348,832.037229 1050.01384,831.355071 1051.71872,830.115569 C1055.00687,827.729251 1057.38961,824.238132 1057.48954,824.091073 C1057.7773,823.668431 1057.7773,823.104909 1057.48954,822.682268 L1057.48954,822.682268 Z M1045.66496,827.71195 C1043.3364,827.71195 1041.45092,825.771753 1041.45092,823.38667 C1041.45092,820.996644 1043.3364,819.061391 1045.66496,819.061391 C1047.9887,819.061391 1049.87899,820.996644 1049.87899,823.38667 C1049.87899,825.771753 1047.9887,827.71195 1045.66496,827.71195 L1045.66496,827.71195 Z" id="Shape" sketch:type="MSShapeGroup"></path>
        </g>
    </g>
</svg>