<?xml version="1.0" encoding="UTF-8" standalone="no"?>
<svg width="37px" height="32px" viewBox="0 0 37 32" version="1.1" xmlns="http://www.w3.org/2000/svg" xmlns:xlink="http://www.w3.org/1999/xlink" xmlns:sketch="http://www.bohemiancoding.com/sketch/ns">
    <!-- Generator: Sketch 3.3.2 (12043) - http://www.bohemiancoding.com/sketch -->
    <title>Group</title>
    <desc>Created with Sketch.</desc>
    <defs></defs>
    <g id="Page-1" stroke="none" stroke-width="1" fill="none" fill-rule="evenodd" sketch:type="MSPage">
        <g id="Desktop-HD-Copy-4" sketch:type="MSArtboardGroup" transform="translate(-1267.000000, -722.000000)" stroke="#000000">
            <g id="Group" sketch:type="MSLayerGroup" transform="translate(1265.000000, 720.000000)">
                <g id="Path-136-Copy-3" transform="translate(15.500000, 28.429993)" stroke-width="1.6" sketch:type="MSShapeGroup">
                    <path d="M0.8714138,0.8 L16.8802131,0.8" id="Path-136"></path>
                </g>
                <path d="M31.4525604,27.1623863 L35.4821332,31.3296479 L39.5396699,27.157486" id="Path-125-Copy-5" stroke-width="1.5" sketch:type="MSShapeGroup" transform="translate(35.496115, 29.243567) rotate(-90.000000) translate(-35.496115, -29.243567) "></path>
                <g id="Line-+-Line-Copy-7" transform="translate(16.500000, 16.234513) rotate(-315.000000) translate(-16.500000, -16.234513) translate(12.500000, 12.234513)" stroke-width="1.6" stroke-linecap="square" sketch:type="MSShapeGroup">
                    <path d="M3.86206897,0.304347826 L3.86206897,7.60869565" id="Line"></path>
                    <path d="M7.4270557,3.95652174 L0.297082228,3.95652174" id="Line-Copy-3"></path>
                </g>
                <path d="M7.00907218,25.1813093 C9.36770995,27.5817045 12.6511313,29.0704378 16.2822648,29.0704378 C23.4619666,29.0704378 29.2822648,23.2501395 29.2822648,16.0704378 C29.2822648,8.89073604 23.4619666,3.07043778 16.2822648,3.07043778 C10.1252396,3.07043778 4.96793216,7.35073872 3.62363954,13.0980437" id="Oval-22-Copy-3" stroke-width="1.6" sketch:type="MSShapeGroup" transform="translate(16.452952, 16.070438) rotate(-106.000000) translate(-16.452952, -16.070438) "></path>
            </g>
        </g>
    </g>
</svg>