<?xml version="1.0" encoding="UTF-8" standalone="no"?>
<svg width="22px" height="16px" viewBox="0 0 22 16" version="1.1" xmlns="http://www.w3.org/2000/svg" xmlns:xlink="http://www.w3.org/1999/xlink" xmlns:sketch="http://www.bohemiancoding.com/sketch/ns">
    <!-- Generator: Sketch 3.3.1 (12005) - http://www.bohemiancoding.com/sketch -->
    <title>Shape Copy 3 + Shape Copy + Shape Copy 2</title>
    <desc>Created with Sketch.</desc>
    <defs></defs>
    <g id="Page-1" stroke="none" stroke-width="1" fill="none" fill-rule="evenodd" sketch:type="MSPage">
        <g id="Desktop-HD-Copy-13" sketch:type="MSArtboardGroup" transform="translate(-30.000000, -30.000000)" fill="#FFFFFF">
            <g id="Shape-Copy-3-+-Shape-Copy-+-Shape-Copy-2" sketch:type="MSLayerGroup" transform="translate(30.000000, 30.000000)">
                <path d="M0.937479146,2.36024921 L20.9370526,2.36024921 C21.4526662,2.36024921 21.8745318,1.90253336 21.8745318,1.34310287 C21.8745318,0.783672378 21.4526662,0.325956522 20.9370526,0.325956522 L0.937479146,0.325956522 C0.421865616,0.325956522 0,0.783672378 0,1.34310287 C0,1.90253336 0.421865616,2.36024921 0.937479146,2.36024921 L0.937479146,2.36024921 Z" id="Shape-Copy-3" sketch:type="MSShapeGroup"></path>
                <path d="M0.937479146,8.98884681 L20.9370526,8.98884681 C21.4526662,8.98884681 21.8745318,8.53113096 21.8745318,7.97170047 C21.8745318,7.41226997 21.4526662,6.95455412 20.9370526,6.95455412 L0.937479146,6.95455412 C0.421865616,6.95455412 0,7.41226997 0,7.97170047 C0,8.53113096 0.421865616,8.98884681 0.937479146,8.98884681 L0.937479146,8.98884681 Z" id="Shape-Copy" sketch:type="MSShapeGroup"></path>
                <path d="M0.937479146,15.6174444 L20.9370526,15.6174444 C21.4526662,15.6174444 21.8745318,15.1597286 21.8745318,14.6002981 C21.8745318,14.0408676 21.4526662,13.5831517 20.9370526,13.5831517 L0.937479146,13.5831517 C0.421865616,13.5831517 0,14.0408676 0,14.6002981 C0,15.1597286 0.421865616,15.6174444 0.937479146,15.6174444 L0.937479146,15.6174444 Z" id="Shape-Copy-2" sketch:type="MSShapeGroup"></path>
            </g>
        </g>
    </g>
</svg>