<?xml version="1.0" encoding="UTF-8" standalone="no"?>
<svg width="28px" height="28px" viewBox="0 0 28 28" version="1.1" xmlns="http://www.w3.org/2000/svg" xmlns:xlink="http://www.w3.org/1999/xlink" xmlns:sketch="http://www.bohemiancoding.com/sketch/ns">
    <!-- Generator: Sketch 3.3.2 (12043) - http://www.bohemiancoding.com/sketch -->
    <title>facebook2</title>
    <desc>Created with Sketch.</desc>
    <defs></defs>
    <g id="Page-1" stroke="none" stroke-width="1" fill="none" fill-rule="evenodd" sketch:type="MSPage">
        <g id="facebook2" sketch:type="MSLayerGroup" fill="#000000">
            <path d="M13.90256,0 C6.23672,0 0,6.23672 0,13.90256 C0,21.56784 6.23672,27.80512 13.90256,27.80512 C21.56784,27.80512 27.80512,21.56784 27.80512,13.90256 C27.80512,6.23672 21.56896,0 13.90256,0 L13.90256,0 Z M17.36,14.392 L15.09816,14.392 L15.09816,22.45376 L11.74656,22.45376 L11.74656,14.392 L10.15336,14.392 L10.15336,11.54272 L11.74656,11.54272 L11.74656,9.69976 C11.74656,8.37984 12.37376,6.31736 15.12896,6.31736 L17.61256,6.32688 L17.61256,9.09272 L15.80992,9.09272 C15.51648,9.09272 15.09928,9.23944 15.09928,9.86888 L15.09928,11.54328 L17.65288,11.54328 L17.36,14.392 L17.36,14.392 Z" id="Shape" sketch:type="MSShapeGroup"></path>
        </g>
    </g>
</svg>