<?xml version="1.0" encoding="UTF-8" standalone="no"?>
<svg width="67px" height="66px" viewBox="0 0 67 66" version="1.1" xmlns="http://www.w3.org/2000/svg" xmlns:xlink="http://www.w3.org/1999/xlink" xmlns:sketch="http://www.bohemiancoding.com/sketch/ns">
    <!-- Generator: Sketch 3.3.2 (12043) - http://www.bohemiancoding.com/sketch -->
    <title>Shape</title>
    <desc>Created with Sketch.</desc>
    <defs></defs>
    <g id="Page-1" stroke="none" stroke-width="1" fill="none" fill-rule="evenodd" sketch:type="MSPage">
        <path d="M33.2,66 C14.9989691,66 0.2,51.1819355 0.2,32.9574194 C0.2,14.7329032 14.9989691,0 33.2,0 C51.4010309,0 66.2,14.8180645 66.2,33.0425806 C66.2,51.2670968 51.4010309,66 33.2,66 L33.2,66 Z M33.2,1.83096774 C16.0069962,1.83096774 2.11365979,15.742231 2.11365979,32.9574194 C2.11365979,50.1726077 16.0069962,64.083871 33.2,64.083871 C50.3930038,64.083871 64.2863402,50.1726077 64.2863402,32.9574194 C64.2863402,15.742231 50.3930038,1.83096774 33.2,1.83096774 L33.2,1.83096774 Z M41.9216495,35.8141935 L30.2876289,43.0709677 C30.192268,43.1664516 30.0969072,43.1664516 30.0015464,43.1664516 L30.0015464,43.1664516 C29.9061856,43.1664516 29.8108247,43.2619355 29.7154639,43.2619355 L29.7154639,43.2619355 L29.6201031,43.2619355 L29.6201031,43.2619355 L29.5247423,43.2619355 L29.5247423,43.2619355 L29.4293814,43.2619355 L29.4293814,43.2619355 L29.3340206,43.2619355 C28.0943299,43.2619355 27.1407216,42.3070968 27.1407216,41.0658065 L27.1407216,41.0658065 L27.1407216,26.5522581 C27.1407216,25.3109677 28.0943299,24.356129 29.3340206,24.356129 C29.8108247,24.356129 30.192268,24.4516129 30.5737113,24.7380645 L42.1123711,31.9948387 C42.7798969,32.3767742 43.256701,33.0451613 43.256701,33.9045161 C43.0659794,34.6683871 42.5891753,35.4322581 41.9216495,35.8141935 L41.9216495,35.8141935 Z" id="Shape" fill="#FFFFFF" sketch:type="MSShapeGroup"></path>
    </g>
</svg>