<?xml version="1.0" encoding="UTF-8" standalone="no"?>
<svg width="77px" height="76px" viewBox="0 0 77 76" version="1.1" xmlns="http://www.w3.org/2000/svg" xmlns:xlink="http://www.w3.org/1999/xlink" xmlns:sketch="http://www.bohemiancoding.com/sketch/ns">
    <!-- Generator: Sketch 3.3.1 (12005) - http://www.bohemiancoding.com/sketch -->
    <title>8.9 + Oval 1 + Rectangle 1</title>
    <desc>Created with Sketch.</desc>
    <defs></defs>
    <g id="Page-1" stroke="none" stroke-width="1" fill="none" fill-rule="evenodd" sketch:type="MSPage">
        <g id="Desktop-HD-Copy-3" sketch:type="MSArtboardGroup" transform="translate(-1253.000000, -48.000000)">
            <g id="8.9-+-Oval-1-+-Rectangle-1" sketch:type="MSLayerGroup" transform="translate(1253.000000, 48.000000)">
                <g id="8.2-+-Oval-1-+-Rectangle-1" sketch:type="MSShapeGroup">
                    <path d="M39.2933431,3.20481791 C19.8635664,3.20481791 4.11262022,19.0397994 4.11262022,38.573239 C4.11262022,58.1066785 19.8635664,73.94166 39.2933431,73.94166 C58.7231199,73.94166 74.474066,58.1066785 74.474066,38.573239 C74.474066,19.0397994 58.7231199,3.20481791 39.2933431,3.20481791 L39.2933431,3.20481791 Z" id="Oval-1" stroke="#000000" stroke-width="4"></path>
                    <path d="M30.5251187,14.1418869 L14.4311579,22.3037108 C11.0113636,24.0364155 7.78320315,39.8662108 7.78320315,39.8662108 L0.538085938,39.8662108 C0.538085938,39.8662108 0.538085938,18.2109373 18.7412113,5.21093732 C27.3517541,-0.179171763 39.4003906,0.217285215 39.4003906,0.217285215 L39.4003901,7.8754881 C39.4003901,7.8754881 34.0432314,12.3593673 30.5251187,14.1418869 Z" id="Rectangle-1" fill-opacity="0.915675951" fill="#FFFFFF"></path>
                </g>
            </g>
        </g>
    </g>
</svg>