<?xml version="1.0" encoding="UTF-8" standalone="no"?>
<svg width="62px" height="34px" viewBox="0 0 62 34" version="1.1" xmlns="http://www.w3.org/2000/svg" xmlns:xlink="http://www.w3.org/1999/xlink" xmlns:sketch="http://www.bohemiancoding.com/sketch/ns">
    <!-- Generator: Sketch 3.3.2 (12043) - http://www.bohemiancoding.com/sketch -->
    <title>Line Copy 14 + Oval 27 Copy + Line Copy 27 + Oval 27 Copy 3 + Line Copy 28 + Sw  tch Copy</title>
    <desc>Created with Sketch.</desc>
    <defs></defs>
    <g id="Page-1" stroke="none" stroke-width="1" fill="none" fill-rule="evenodd" sketch:type="MSPage">
        <g id="Line-Copy-14-+-Oval-27-Copy-+-Line-Copy-27-+-Oval-27-Copy-3-+-Line-Copy-28-+-Sw--tch-Copy" sketch:type="MSLayerGroup" transform="translate(-2.000000, 1.000000)">
            <g id="Line-Copy-14-+-Oval-27-Copy" transform="translate(29.901961, 0.000000)" stroke="#FFFFFF" sketch:type="MSShapeGroup">
                <path d="M19.0490548,1.94748231 L4.9921921,1.94748231" id="Line-Copy-14" stroke-width="1.2" stroke-linecap="square"></path>
                <path d="M2.23332932,0.287482308 C1.14500349,0.287482308 0.262741089,1.1739585 0.262741089,2.26748231 C0.262741089,3.36100611 1.14500349,4.24748231 2.23332932,4.24748231 C3.32165515,4.24748231 4.20391756,3.36100611 4.20391756,2.26748231 C4.20391756,1.1739585 3.32165515,0.287482308 2.23332932,0.287482308 L2.23332932,0.287482308 Z" id="Oval-27-Copy"></path>
            </g>
            <g id="Line-Copy-27-+-Oval-27-Copy-3" transform="translate(15.450980, 27.720000)" stroke="#FFFFFF" sketch:type="MSShapeGroup">
                <path d="M0.656825511,2.26748231 L14.7182493,2.26748231" id="Line-Copy-27" stroke-width="1.2" stroke-linecap="square"></path>
                <path d="M16.6843097,0.287482308 C15.5959839,0.287482308 14.7137215,1.1739585 14.7137215,2.26748231 C14.7137215,3.36100611 15.5959839,4.24748231 16.6843097,4.24748231 C17.7726355,4.24748231 18.654898,3.36100611 18.654898,2.26748231 C18.654898,1.1739585 17.7726355,0.287482308 16.6843097,0.287482308 L16.6843097,0.287482308 Z" id="Oval-27-Copy-3"></path>
            </g>
            <g id="Line-Copy-28-+-Sw--tch-Copy" transform="translate(0.799805, 7.920000)">
                <path d="M31.65,4.41005135 L31.65,13.1220513" id="Line-Copy-28" stroke="#FFFFFF" stroke-width="1.3" stroke-linecap="square" sketch:type="MSShapeGroup"></path>
                <text id="Sw--tch-Copy" sketch:type="MSTextLayer" font-family="Gotham Book" font-size="18.3921569" font-weight="normal" sketch:alignment="middle" fill="#FFFFFF">
                    <tspan x="0.99318048" y="13.2874823">Sw </tspan>
                    <tspan x="34.117455" y="13.2874823" font-size="2.62745098"> </tspan>
                    <tspan x="34.9056903" y="13.2874823">tch</tspan>
                </text>
            </g>
        </g>
    </g>
</svg>