<?xml version="1.0" encoding="UTF-8" standalone="no"?>
<svg width="28px" height="28px" viewBox="0 0 28 28" version="1.1" xmlns="http://www.w3.org/2000/svg" xmlns:xlink="http://www.w3.org/1999/xlink" xmlns:sketch="http://www.bohemiancoding.com/sketch/ns">
    <!-- Generator: Sketch 3.3.2 (12043) - http://www.bohemiancoding.com/sketch -->
    <title>twitter</title>
    <desc>Created with Sketch.</desc>
    <defs></defs>
    <g id="Page-1" stroke="none" stroke-width="1" fill="none" fill-rule="evenodd" sketch:type="MSPage">
        <g id="twitter" sketch:type="MSLayerGroup" fill="#000000">
            <path d="M13.90256,0 C6.23672,0 0,6.23672 0,13.90256 C0,21.56784 6.23672,27.80512 13.90256,27.80512 C21.56784,27.80512 27.80512,21.56784 27.80512,13.90256 C27.80512,6.23672 21.56896,0 13.90256,0 L13.90256,0 Z M20.10456,10.72064 C20.11072,10.8584 20.11408,10.99728 20.11408,11.13616 C20.11408,15.36472 16.89632,20.23896 11.00904,20.23896 C9.20192,20.23896 7.51968,19.71088 6.104,18.80256 C6.35432,18.83224 6.60912,18.84736 6.86728,18.84736 C8.36696,18.84736 9.74624,18.33552 10.8416,17.4776 C9.4416,17.45184 8.25944,16.52672 7.85232,15.25496 C8.0472,15.29192 8.24824,15.31264 8.45376,15.31264 C8.74552,15.31264 9.02888,15.27456 9.29712,15.2012 C7.83328,14.90776 6.73064,13.61472 6.73064,12.06352 C6.73064,12.05008 6.73064,12.03608 6.7312,12.0232 C7.1624,12.26232 7.65576,12.4068 8.17992,12.42304 C7.322,11.85016 6.75696,10.87016 6.75696,9.76024 C6.75696,9.17336 6.91432,8.62344 7.18984,8.1508 C8.76736,10.08728 11.12608,11.36072 13.78496,11.49512 C13.73008,11.26048 13.70264,11.01688 13.70264,10.76544 C13.70264,8.99864 15.13512,7.5656 16.90192,7.5656 C17.82256,7.5656 18.65304,7.95424 19.23768,8.57584 C19.96736,8.43248 20.65056,8.16704 21.27048,7.79912 C21.02968,8.54672 20.524,9.17336 19.86152,9.56984 C20.50944,9.49256 21.12768,9.3212 21.69944,9.0664 C21.27272,9.70704 20.73008,10.27096 20.10456,10.72064 L20.10456,10.72064 Z" id="Shape" sketch:type="MSShapeGroup"></path>
        </g>
    </g>
</svg>