<?xml version="1.0" encoding="UTF-8" standalone="no"?>
<svg width="36px" height="36px" viewBox="0 0 36 36" version="1.1" xmlns="http://www.w3.org/2000/svg" xmlns:xlink="http://www.w3.org/1999/xlink" xmlns:sketch="http://www.bohemiancoding.com/sketch/ns">
    <!-- Generator: Sketch 3.3.1 (12005) - http://www.bohemiancoding.com/sketch -->
    <title>Oval 8 Copy 9 + black3 2 copy 5</title>
    <desc>Created with Sketch.</desc>
    <defs></defs>
    <g id="Page-1" stroke="none" stroke-width="1" fill="none" fill-rule="evenodd" sketch:type="MSPage">
        <g id="Desktop-HD-Copy-14" sketch:type="MSArtboardGroup" transform="translate(-682.000000, -990.000000)" stroke="#2A2A2A">
            <g id="Oval-8-Copy-9-+-black3-2-copy-5-+-Oval-8-Copy-8-+-Path-1664-+-Path-1665-Copy-3-+-Oval-8-Copy-6-+-Line-+-Line" sketch:type="MSLayerGroup" transform="translate(634.500000, 989.992535)">
                <g id="Oval-8-Copy-9-+-black3-2-copy-5" transform="translate(48.493895, 0.264060)" sketch:type="MSShapeGroup">
                    <ellipse id="Oval-8-Copy-9" cx="16.8906814" cy="17.4683927" rx="16.760274" ry="16.9787175"></ellipse>
                    <g id="black3-2-copy-5" transform="translate(9.403066, 11.250038)">
                        <path d="M14.8410159,5.39040183 C14.7788691,5.29064167 13.29708,2.92238581 11.2522261,1.30358862 C10.1919869,0.462753003 8.8547078,0 7.48747846,0 C6.12099788,0 4.78371879,0.462753003 3.72123334,1.30358862 C1.67637938,2.92238581 0.196087806,5.29064167 0.133941018,5.39040183 C-0.0442630257,5.67794582 -0.0442630257,6.05938172 0.133941018,6.3469257 C0.196087806,6.44668586 1.67637938,8.81494172 3.72123334,10.4337389 C4.78371879,11.2737362 6.12099788,11.7364892 7.48747846,11.7364892 C8.8547078,11.7364892 10.1919869,11.2737362 11.2522261,10.4329006 C13.29708,8.8141034 14.7788691,6.44584754 14.8410159,6.34608738 C15.0199687,6.05938172 15.0199687,5.6771075 14.8410159,5.39040183 L14.8410159,5.39040183 Z M7.48747846,8.80236691 C6.03938342,8.80236691 4.86683076,7.48620348 4.86683076,5.86824461 C4.86683076,4.24693246 6.03938342,2.9341223 7.48747846,2.9341223 C8.93257848,2.9341223 10.1081262,4.24693246 10.1081262,5.86824461 C10.1081262,7.48620348 8.93257848,8.80236691 7.48747846,8.80236691 L7.48747846,8.80236691 Z" id="Shape"></path>
                    </g>
                </g>
            </g>
        </g>
    </g>
</svg>