<?xml version="1.0" encoding="utf-8"?>
<!-- Generator: Adobe Illustrator 16.0.0, SVG Export Plug-In . SVG Version: 6.00 Build 0)  -->
<!DOCTYPE svg PUBLIC "-//W3C//DTD SVG 1.1//EN" "http://www.w3.org/Graphics/SVG/1.1/DTD/svg11.dtd">
<svg version="1.1" id="Layer_1" xmlns="http://www.w3.org/2000/svg" xmlns:xlink="http://www.w3.org/1999/xlink" x="0px" y="0px"
	 width="24px" height="21px" viewBox="0 0 24 21" enable-background="new 0 0 24 21" xml:space="preserve">
<path fill="#FFFFFF" d="M23.639,19.859L12.477,0.527c-0.099-0.172-0.282-0.276-0.479-0.276c-0.197,0-0.38,0.104-0.479,0.276
	L0.321,19.921c-0.099,0.17-0.099,0.382,0,0.553c0.099,0.172,0.281,0.276,0.479,0.276h22.396c0.002,0,0.003,0,0.005,0
	c0.306,0,0.554-0.247,0.554-0.553C23.754,20.069,23.712,19.953,23.639,19.859z M1.758,19.644L11.997,1.909l10.241,17.735H1.758
	L1.758,19.644z"/>
<g>
	<path fill="#FFFFFF" d="M11.474,7.781v7.501c0,0.287,0.234,0.522,0.523,0.522s0.522-0.235,0.522-0.522V7.781
		c0-0.289-0.233-0.523-0.522-0.523S11.474,7.492,11.474,7.781z"/>
	<path fill="#FFFFFF" d="M11.997,16.414c-0.358,0-0.649,0.291-0.649,0.649c0,0.357,0.291,0.649,0.649,0.649s0.649-0.292,0.649-0.649
		C12.646,16.705,12.355,16.414,11.997,16.414z"/>
</g>
</svg>
